PathFileType	4	(X/Y/Z)	Patient4_TMGait_0pt7_02_left_42.trc.trc
DataRate	CameraRate	NumFrames	NumMarkers	Units	OrigDataRate	OrigDataStartFrame	OrigNumFrames
84.848484848485	84.848484848485	4	33	mm	84.848484848485	106	       141
Frame#	Time	Sacral			L.Shoulder			Chest			R.Shoulder			Neck			R.ASIS			L.ASIS			R.Thigh.Superior			R.Thigh.Lateral			R.Thigh.Inferior			R.Patella			L.Thigh.Superior			L.Thigh.Lateral			L.Thigh.Inferior			L.Patella			L.Shank.Superior			L.Shank.Lateral			L.Shank.Inferior			R.Shank.Superior			R.Shank.Lateral			R.Shank.Inferior			R.Heel			R.Midfoot.Superior			R.Midfoot.Lateral			R.Toe			L.Heel			L.Midfoot.Lateral			L.Midfoot.Superior			L.Toe			L.Elbow			L.Wrist			R.Elbow			R.Wrist			
		X1	Y1	Z1	X2	Y2	Z2	X3	Y3	Z3	X4	Y4	Z4	X5	Y5	Z5	X6	Y6	Z6	X7	Y7	Z7	X8	Y8	Z8	X9	Y9	Z9	X10	Y10	Z10	X11	Y11	Z11	X12	Y12	Z12	X13	Y13	Z13	X14	Y14	Z14	X15	Y15	Z15	X16	Y16	Z16	X17	Y17	Z17	X18	Y18	Z18	X19	Y19	Z19	X20	Y20	Z20	X21	Y21	Z21	X22	Y22	Z22	X23	Y23	Z23	X24	Y24	Z24	X25	Y25	Z25	X26	Y26	Z26	X27	Y27	Z27	X28	Y28	Z28	X29	Y29	Z29	X30	Y30	Z30	X31	Y31	Z31	X32	Y32	Z32	X33	Y33	Z33	

106	49.347500000000	704.333369018017	1022.111903579981	522.933607889817	902.279736660402	1433.794114224804	328.925244855144	1011.495893310289	1355.939765279846	482.558555540166	950.419079448818	1440.238385900361	660.337664050902	919.753350187001	1495.242538781912	483.582292617710	928.739571230382	947.920026024285	637.300255653220	910.032452116546	959.915349594562	363.202847435467	953.301398544288	743.641975729897	613.735448551181	859.627871227590	639.964303010758	666.126529652194	937.388010303661	583.473976751299	590.831858110597	930.705410925879	496.298806186096	595.005074965227	997.737342134806	799.202064215535	390.298749640191	966.830344453566	671.272512023700	304.929328395166	1079.278022507860	617.560849852352	362.194456356686	1100.494393844382	527.002081229504	351.899126856751	1035.876651516517	455.080289863847	350.196942503165	894.248420936530	407.732386156704	306.469868756717	886.381110271094	280.428344613042	365.735002309867	900.043054530868	409.753518269752	596.549671009446	820.449650114384	306.797385887973	648.666034483385	866.182445655076	212.604928809909	584.702289812261	728.687215746532	50.274332236198	541.732230984268	902.803297577725	98.249225181242	579.920152554204	812.193305264096	38.435792792021	614.371403539542	1020.283881871728	39.370319184916	604.326155385476	698.814668704479	213.737886932684	408.692491699999	755.902703423617	163.288507962710	331.063771400521	861.153870898069	174.658503862049	350.323119518013	940.137162851679	61.850395526970	329.508173987807	796.621363066751	1090.958283622830	243.489845212984	797.746184559103	829.223778491965	241.177196751277	1012.786345679046	1099.611257925484	783.861889457243	1237.155024310054	987.261964279587	718.271982496654	
107	49.359285714286	703.283758234258	1022.687212896802	523.002546310522	901.899213242477	1434.184640271341	329.530186328934	1011.201468289636	1355.829082693734	482.797735477557	950.764033074390	1440.050213275654	660.810166942698	919.615631036798	1495.354910817564	484.345696042421	927.468225396732	948.150136942192	637.619429156966	909.060816000686	960.017960914330	363.427671828650	950.053933575797	743.386183584567	613.482246515635	855.528542143251	640.361109105165	666.372648886553	932.553174733893	583.067044379612	591.204891815341	924.846931122233	496.119474604112	595.457511220172	997.477648953195	801.687465532851	390.564128848171	968.935826106614	673.538967441720	304.471654552255	1082.004586877170	621.653411257429	361.889628176353	1105.240967165708	532.019813390796	351.469236132304	1043.468727026323	458.295328982826	349.759928352130	904.057527755450	404.595389722231	306.081674155476	902.285772733995	276.804277088637	365.079498331803	893.724146871487	409.792361612753	596.962402465178	813.417505721164	307.318422217798	649.001814381827	858.642766247005	212.818202340185	585.154290054155	720.453598339224	50.930621457248	541.980330561460	894.633228971747	98.216344190374	580.092248549961	803.966444782856	38.635537329348	614.683415825263	1012.021255489240	39.213904180093	604.407971266258	718.097490962684	201.143386262167	408.296982988283	777.325332998817	153.765116692794	330.285087674913	882.070082981494	170.066548055314	349.334715854056	966.327444491578	61.178320096459	327.756960729727	788.560779424164	1094.604505278133	242.333854884899	777.156845575301	833.384987321124	239.910477498709	1023.643892549925	1102.006945387567	783.220536847286	1252.839485229514	1004.293999981948	712.931621338998	
108	49.371071428571	702.298364025119	1023.197582502916	522.920157678612	901.560233844740	1434.479548972302	329.997457375260	1010.959650819260	1355.632279024871	482.902731854005	951.117657058212	1439.783939494384	661.140369060066	919.506133399642	1495.362316636124	484.971199669202	926.249151299233	948.228390713086	637.796987468696	908.187741388890	959.964463372780	363.518247628395	946.860798173273	742.992121243633	613.221587836383	851.377835490344	640.658037478575	666.510373420825	927.655193056531	582.540082537499	591.491194625459	918.919380634748	495.866211321303	595.777486541734	996.980695351189	803.660846658212	390.844600862917	970.618149171204	675.354314337398	304.063414754700	1083.986602016736	625.016543363556	361.841062109608	1109.076234008698	536.450079721571	351.296340465546	1050.339879580050	461.098317274421	349.413192432103	913.687323716320	400.813376694416	305.586884075047	918.372512849177	272.746930413360	364.196607864867	887.352755347784	409.764858894842	597.240994537837	806.379366832564	307.762093089289	649.246834737125	851.065919759276	212.965777506122	585.502108031766	712.212290516576	51.481495638695	542.201065567709	886.444332444429	98.186307187121	580.240339606121	795.721590562811	38.818148174185	614.977178199222	1003.744676396737	39.074879839476	604.486814152469	738.287667650634	187.792474391977	407.467797154565	799.616261487225	143.760991511082	329.118517775408	903.516011473350	165.190846220632	348.054110220754	993.082795141504	60.664125086823	325.764915822960	780.414779367526	1098.546340912700	240.688834210426	758.200286968622	838.354022955532	238.739470351644	1033.840926015015	1104.616020383479	782.374142049289	1266.877898106204	1021.873962286338	707.397790431653	
109	49.382857142857	701.388703949765	1023.636591992986	522.695238699107	901.244046262165	1434.677095889359	330.327196327296	1010.764140624438	1355.351575315034	482.862956485848	951.485905014770	1439.435680177252	661.322524070810	919.421941776680	1495.257076440905	485.451350789967	925.101217137301	948.152816847626	637.819444799178	907.416851754978	959.760070095518	363.458599103082	943.715215517825	742.438043593027	612.983235932282	847.137706837648	640.844808249312	666.529182780770	922.663210215631	581.881249258165	591.691452173264	912.895722364260	495.526752673462	595.953373126667	996.257451130655	805.094080341923	391.140768153685	971.853699096918	676.666652438763	303.737002742862	1085.216202189226	627.575265413786	362.064339960034	1111.985805923480	540.216280511008	351.413689052725	1056.446605598974	463.455073717363	349.189867079639	923.160302781366	396.448654857846	304.956276132972	934.575051733631	268.388668851497	363.100574098593	880.898708846616	409.659132317554	597.369143372856	799.308618726300	308.115476947660	649.381870306603	843.441706519923	213.036975030472	585.724861046628	703.957910516314	51.897689870615	542.380044315190	878.229483262953	98.158391177058	580.353383491932	787.454784992851	38.972745444605	615.230758657255	995.451339941329	38.958706947718	604.562988433381	759.355613373041	173.909518631264	406.146896867916	822.745061685385	133.513748587978	327.540518019814	925.401960030420	160.232661151497	346.503156998433	1020.255331176299	60.566635489801	323.619132188607	772.319658764760	1102.717734951615	238.693526282435	740.800540475560	843.834370191347	237.681220052158	1043.344677993678	1107.368079498303	781.317521585090	1279.225340678504	1039.829963653880	701.731946282561	
